# xmcd
#
# Track frame offsets:
#	150
#	14068
#	30193
#	39443
#	52221
#	71487
#	83232
#	94355
#	106991
#	123059
#	135597
#	149368
#
# Disc length: 2124 seconds
#
# Revision: 0
# Processed by: cddbd v1.5.1PL0 Copyright (c) Steve Scherf et al.
# Submitted via: dBpowerAMP V4.0
#
DISCID=a1084a0c
DTITLE=Michael Bright - It's Gonna Be A Good Day
DYEAR=1900
DGENRE=
TTITLE0=It's Gonna Be A Good Day
TTITLE1=God Is Good
TTITLE2=Everything Is Gonna Be Fine
TTITLE3=Jesus Takes My Burdens Away
TTITLE4=I Believe Jesus Died For Me
TTITLE5=Buildings Made Of Stone
TTITLE6=You Can Move That Mountain
TTITLE7=When Jesus Heard My Prayer
TTITLE8=Jesus Is The Answer
TTITLE9=Once I Was Blind
TTITLE10=One Day
TTITLE11=I Gotta Run
EXTD=
EXTT0=
EXTT1=
EXTT2=
EXTT3=
EXTT4=
EXTT5=
EXTT6=
EXTT7=
EXTT8=
EXTT9=
EXTT10=
EXTT11=
PLAYORDER=
